<?xml version="1.0" standalone="no"?>
<!DOCTYPE svg PUBLIC "-//W3C//DTD SVG 20010904//EN"
 "http://www.w3.org/TR/2001/REC-SVG-20010904/DTD/svg10.dtd">
<svg version="1.0" xmlns="http://www.w3.org/2000/svg"
 width="664.000000pt" height="664.000000pt" viewBox="0 0 664.000000 664.000000"
 preserveAspectRatio="xMidYMid meet">
<metadata>
Created by potrace 1.14, written by Peter Selinger 2001-2017
</metadata>
<g transform="translate(0.000000,664.000000) scale(0.100000,-0.100000)"
fill="#000000" stroke="none">
<path d="M3207 5753 c-1 -1 -29 -4 -62 -7 -137 -12 -196 -19 -210 -27 -5 -3
-25 -6 -44 -8 -19 -1 -39 -4 -44 -8 -6 -4 -20 -8 -31 -9 -48 -7 -74 -14 -186
-49 -3 -1 -12 -4 -20 -8 -8 -3 -37 -13 -65 -23 -27 -10 -56 -22 -62 -27 -7 -5
-13 -6 -13 -2 0 4 -6 2 -13 -4 -8 -6 -17 -8 -20 -4 -4 3 -7 1 -7 -5 0 -7 -5
-12 -11 -12 -15 0 -201 -92 -217 -108 -8 -7 -18 -10 -23 -7 -5 4 -9 2 -9 -4 0
-10 -38 -34 -72 -47 -10 -3 -18 -10 -18 -15 0 -5 -7 -9 -15 -9 -8 0 -15 -3
-15 -7 0 -5 -21 -21 -45 -38 -25 -16 -45 -33 -45 -37 0 -5 -7 -8 -15 -8 -8 0
-15 -5 -15 -11 0 -6 -7 -8 -16 -5 -8 3 -13 2 -10 -3 3 -5 -11 -22 -31 -37 -48
-38 -235 -225 -269 -269 -14 -19 -31 -32 -37 -28 -6 3 -7 1 -3 -6 5 -7 -3 -23
-18 -38 -14 -14 -35 -41 -47 -59 -11 -19 -26 -31 -31 -28 -7 4 -8 2 -4 -4 4
-6 -14 -41 -39 -78 -25 -36 -45 -71 -45 -76 0 -5 -5 -6 -12 -2 -7 4 -8 3 -4
-5 4 -6 3 -17 -2 -24 -17 -21 -92 -171 -92 -184 0 -7 -4 -13 -10 -13 -5 0 -10
-6 -10 -14 0 -7 -11 -38 -24 -69 -14 -30 -22 -58 -19 -61 4 -3 1 -6 -5 -6 -7
0 -11 -3 -10 -7 2 -7 -14 -64 -29 -103 -7 -19 -11 -29 -16 -55 -3 -11 -10 -40
-17 -65 -7 -25 -14 -54 -15 -65 -4 -23 -12 -69 -20 -105 -14 -60 -26 -183 -28
-290 -1 -41 -5 -80 -9 -86 -4 -6 -4 -14 0 -18 4 -4 8 -29 9 -54 1 -46 10 -162
18 -232 2 -19 9 -60 15 -90 7 -30 13 -69 13 -87 1 -17 5 -29 9 -27 7 4 12 -40
6 -48 -1 -2 4 -12 10 -24 6 -11 13 -32 16 -45 4 -26 31 -111 45 -144 5 -11 21
-51 37 -90 15 -38 48 -110 73 -160 25 -49 45 -92 45 -95 0 -3 8 -14 18 -24 10
-11 18 -26 18 -33 0 -7 3 -13 8 -13 4 0 13 -12 19 -28 7 -15 26 -43 43 -62 16
-19 30 -39 30 -43 0 -8 9 -20 40 -56 8 -9 27 -33 42 -52 14 -19 55 -66 90
-103 34 -38 62 -73 61 -77 -2 -5 3 -8 10 -6 6 1 11 -4 9 -11 -1 -8 2 -11 7 -8
5 4 18 -5 29 -19 11 -14 24 -25 29 -25 5 0 20 -12 33 -27 14 -16 63 -57 110
-93 47 -35 88 -69 92 -75 4 -5 8 -6 8 -2 0 4 15 -3 33 -17 60 -45 264 -157
342 -186 23 -9 26 -13 15 -21 -10 -6 -5 -7 16 -3 19 4 34 1 38 -5 4 -6 16 -11
27 -11 10 0 19 -5 19 -12 0 -6 3 -9 6 -6 3 4 36 -4 72 -17 37 -14 80 -26 96
-29 16 -3 38 -13 49 -23 11 -10 17 -12 13 -6 -8 14 3 17 28 7 9 -3 13 -11 10
-16 -4 -6 1 -6 13 1 15 7 25 6 41 -5 13 -9 22 -11 22 -4 0 7 7 7 23 -1 12 -7
23 -12 25 -11 1 1 14 2 28 2 17 0 23 -4 18 -12 -6 -10 -4 -10 8 0 9 7 19 9 22
4 3 -5 18 -7 32 -4 15 3 24 1 21 -4 -3 -5 27 -9 66 -9 40 1 82 -3 95 -7 13 -5
22 -4 22 3 0 6 5 7 12 3 15 -9 2093 -9 2142 0 46 9 82 28 121 65 29 27 65 86
69 115 1 6 5 17 9 24 5 7 3 12 -4 12 -10 0 -10 3 -2 11 7 7 8 20 3 34 -4 12
-4 28 0 35 5 8 4 22 -1 31 -6 11 -5 20 1 24 6 3 6 15 0 29 -5 13 -6 27 -2 30
10 11 10 50 0 70 -6 11 -6 16 0 13 5 -4 9 7 8 23 -1 17 -5 30 -9 30 -4 0 -3 8
2 18 6 11 6 24 -1 36 -9 16 -8 18 6 13 15 -6 15 -5 0 18 -9 14 -12 25 -7 25 7
0 9 43 3 60 -3 6 -3 4 3 63 3 26 2 45 -3 42 -5 -3 -5 8 0 25 5 16 5 30 1 30
-5 0 -5 18 -1 39 4 21 3 46 -2 55 -6 10 -5 16 1 16 6 0 6 11 1 29 -4 16 -6 32
-3 35 10 9 10 81 0 94 -6 7 -6 12 0 12 11 0 9 42 -2 59 -3 6 -3 11 2 11 4 0 8
14 8 30 0 17 -4 30 -8 30 -5 0 -5 5 -1 12 9 14 12 58 4 58 -5 0 -3 161 3 210
2 14 -1 33 -5 43 -5 10 -5 17 1 17 6 0 6 11 1 29 -4 16 -6 32 -3 34 9 9 10 92
1 110 -5 9 -5 17 -1 17 4 0 8 11 8 25 0 14 -4 25 -8 25 -5 0 -5 6 0 13 11 18
12 36 2 43 -5 3 -6 11 -2 17 10 16 11 47 3 52 -4 2 -4 25 0 50 4 25 3 48 -2
51 -4 3 -5 11 -1 17 10 17 11 47 1 47 -5 0 -5 8 -1 18 10 20 9 64 -1 81 -4 6
-3 11 2 11 9 0 10 29 0 45 -3 6 -2 19 2 30 4 11 4 30 -1 43 -8 21 -5 26 16 22
5 -1 2 7 -7 17 -11 12 -18 42 -21 90 -3 39 -7 75 -10 80 -2 4 -8 32 -11 62 -4
29 -9 57 -11 61 -3 4 -7 24 -11 45 -3 20 -12 58 -19 83 -8 25 -12 49 -9 54 3
4 0 8 -5 8 -6 0 -10 3 -9 8 1 4 -5 27 -12 52 -7 25 -13 48 -12 53 1 4 -3 7
-10 7 -6 0 -9 3 -5 6 3 4 -3 24 -14 46 -11 22 -16 38 -11 34 5 -3 9 1 9 9 0 8
-5 13 -10 12 -6 -1 -15 12 -21 28 -6 17 -15 33 -19 36 -5 3 -8 9 -8 13 2 11
-62 141 -71 144 -4 2 -8 12 -8 23 0 10 -5 19 -11 19 -6 0 -8 7 -5 16 3 8 2 12
-4 9 -6 -3 -13 2 -17 12 -7 21 -100 159 -125 187 -10 11 -18 24 -18 29 0 5
-12 20 -27 33 -16 13 -25 24 -21 24 7 0 -22 31 -138 151 -70 72 -105 104 -183
167 -19 15 -43 35 -53 45 -10 9 -20 17 -23 17 -12 0 -84 58 -80 64 3 3 2 4 -1
2 -3 -2 -51 23 -107 56 -109 65 -254 138 -274 138 -7 0 -13 4 -13 10 0 5 -3 9
-7 8 -7 -3 -45 10 -98 32 -21 9 -189 61 -215 67 -8 2 -19 5 -25 7 -5 1 -32 7
-60 11 -57 10 -64 12 -67 15 -3 2 -16 4 -93 14 -106 14 -175 18 -303 20 -73 1
-134 0 -135 -1z"/>
<path d="M4476 5562 c-3 -5 1 -9 9 -9 8 0 12 4 9 9 -3 4 -7 8 -9 8 -2 0 -6 -4
-9 -8z"/>
<path d="M1035 3001 c-3 -5 -2 -12 3 -15 5 -3 9 1 9 9 0 17 -3 19 -12 6z"/>
<path d="M5869 2683 c-13 -16 -12 -17 4 -4 9 7 17 15 17 17 0 8 -8 3 -21 -13z"/>
<path d="M5676 2002 c-3 -5 1 -9 9 -9 8 0 12 4 9 9 -3 4 -7 8 -9 8 -2 0 -6 -4
-9 -8z"/>
<path d="M5706 1402 c-3 -5 1 -9 9 -9 8 0 12 4 9 9 -3 4 -7 8 -9 8 -2 0 -6 -4
-9 -8z"/>
<path d="M5627 1239 c7 -7 15 -10 18 -7 3 3 -2 9 -12 12 -14 6 -15 5 -6 -5z"/>
<path d="M4913 1195 c0 -8 4 -12 9 -9 5 3 6 10 3 15 -9 13 -12 11 -12 -6z"/>
<path d="M3915 1121 c-3 -5 -2 -12 3 -15 5 -3 9 1 9 9 0 17 -3 19 -12 6z"/>
<path d="M3065 1080 c-3 -6 1 -7 9 -4 18 7 21 14 7 14 -6 0 -13 -4 -16 -10z"/>
</g>
</svg>
